<svg width="214" height="44" viewBox="0 0 214 44" fill="none" xmlns="http://www.w3.org/2000/svg">
<rect width="214" height="44" rx="2" fill="#FFC94F"/>
<path d="M71.894 27.168C70.8767 27.168 69.9573 26.9487 69.136 26.51C68.324 26.0713 67.6847 25.4693 67.218 24.704C66.7607 23.9293 66.532 23.0613 66.532 22.1C66.532 21.1387 66.7607 20.2753 67.218 19.51C67.6847 18.7353 68.324 18.1287 69.136 17.69C69.9573 17.2513 70.8767 17.032 71.894 17.032C72.9113 17.032 73.826 17.2513 74.638 17.69C75.45 18.1287 76.0893 18.7353 76.556 19.51C77.0227 20.2753 77.256 21.1387 77.256 22.1C77.256 23.0613 77.0227 23.9293 76.556 24.704C76.0893 25.4693 75.45 26.0713 74.638 26.51C73.826 26.9487 72.9113 27.168 71.894 27.168ZM71.894 25.236C72.4727 25.236 72.9953 25.1053 73.462 24.844C73.9287 24.5733 74.2927 24.2 74.554 23.724C74.8247 23.248 74.96 22.7067 74.96 22.1C74.96 21.4933 74.8247 20.952 74.554 20.476C74.2927 20 73.9287 19.6313 73.462 19.37C72.9953 19.0993 72.4727 18.964 71.894 18.964C71.3153 18.964 70.7927 19.0993 70.326 19.37C69.8593 19.6313 69.4907 20 69.22 20.476C68.9587 20.952 68.828 21.4933 68.828 22.1C68.828 22.7067 68.9587 23.248 69.22 23.724C69.4907 24.2 69.8593 24.5733 70.326 24.844C70.7927 25.1053 71.3153 25.236 71.894 25.236ZM85.0675 21.26H82.5195V27H80.3495V21.26H77.8015V19.468H85.0675V21.26ZM93.7216 19.468V27H91.5376V21.26H88.4016V27H86.2316V19.468H93.7216ZM100.254 19.356C100.954 19.356 101.588 19.5193 102.158 19.846C102.736 20.1633 103.189 20.616 103.516 21.204C103.842 21.7827 104.006 22.4593 104.006 23.234C104.006 24.0087 103.842 24.69 103.516 25.278C103.189 25.8567 102.736 26.3093 102.158 26.636C101.588 26.9533 100.954 27.112 100.254 27.112C99.2923 27.112 98.5363 26.8087 97.9856 26.202V29.716H95.8016V19.468H97.8876V20.336C98.429 19.6827 99.2176 19.356 100.254 19.356ZM99.8756 25.32C100.436 25.32 100.893 25.1333 101.248 24.76C101.612 24.3773 101.794 23.8687 101.794 23.234C101.794 22.5993 101.612 22.0953 101.248 21.722C100.893 21.3393 100.436 21.148 99.8756 21.148C99.3156 21.148 98.8536 21.3393 98.4896 21.722C98.135 22.0953 97.9576 22.5993 97.9576 23.234C97.9576 23.8687 98.135 24.3773 98.4896 24.76C98.8536 25.1333 99.3156 25.32 99.8756 25.32ZM108.339 19.356C109.506 19.356 110.402 19.636 111.027 20.196C111.653 20.7467 111.965 21.582 111.965 22.702V27H109.921V26.062C109.511 26.762 108.745 27.112 107.625 27.112C107.047 27.112 106.543 27.014 106.113 26.818C105.693 26.622 105.371 26.3513 105.147 26.006C104.923 25.6607 104.811 25.2687 104.811 24.83C104.811 24.13 105.073 23.5793 105.595 23.178C106.127 22.7767 106.944 22.576 108.045 22.576H109.781C109.781 22.1 109.637 21.736 109.347 21.484C109.058 21.2227 108.624 21.092 108.045 21.092C107.644 21.092 107.247 21.1573 106.855 21.288C106.473 21.4093 106.146 21.5773 105.875 21.792L105.091 20.266C105.502 19.9767 105.992 19.7527 106.561 19.594C107.14 19.4353 107.733 19.356 108.339 19.356ZM108.171 25.642C108.545 25.642 108.876 25.558 109.165 25.39C109.455 25.2127 109.66 24.956 109.781 24.62V23.85H108.283C107.387 23.85 106.939 24.144 106.939 24.732C106.939 25.012 107.047 25.236 107.261 25.404C107.485 25.5627 107.789 25.642 108.171 25.642ZM119.617 23.066C120.503 23.3647 120.947 23.962 120.947 24.858C120.947 25.5393 120.69 26.0667 120.177 26.44C119.663 26.8133 118.898 27 117.881 27H113.863V19.468H117.713C118.655 19.468 119.393 19.6407 119.925 19.986C120.457 20.322 120.722 20.798 120.722 21.414C120.722 21.7873 120.625 22.1187 120.429 22.408C120.242 22.688 119.971 22.9073 119.617 23.066ZM115.865 22.562H117.517C118.282 22.562 118.665 22.2913 118.665 21.75C118.665 21.218 118.282 20.952 117.517 20.952H115.865V22.562ZM117.699 25.516C118.501 25.516 118.903 25.2407 118.903 24.69C118.903 24.4007 118.809 24.1907 118.623 24.06C118.436 23.92 118.142 23.85 117.741 23.85H115.865V25.516H117.699ZM122.571 19.468H124.741V23.948L128.409 19.468H130.411V27H128.241V22.52L124.587 27H122.571V19.468ZM138.839 21.26H136.291V27H134.121V21.26H131.573V19.468H138.839V21.26ZM144.077 21.876C145.057 21.8853 145.808 22.1093 146.331 22.548C146.854 22.9773 147.115 23.5887 147.115 24.382C147.115 25.2127 146.821 25.8613 146.233 26.328C145.654 26.7853 144.838 27.014 143.783 27.014L140.003 27V19.468H142.173V21.876H144.077ZM143.587 25.46C144.007 25.4693 144.329 25.3807 144.553 25.194C144.777 25.0073 144.889 24.7273 144.889 24.354C144.889 23.99 144.777 23.724 144.553 23.556C144.338 23.388 144.016 23.2993 143.587 23.29L142.173 23.276V25.46H143.587Z" fill="#464855"/>
</svg>
