<svg width="280" height="44" viewBox="0 0 280 44" fill="none" xmlns="http://www.w3.org/2000/svg">
<rect width="280" height="44" rx="2" fill="#3D4F64"/>
<path d="M79.15 17.2V27H76.896V19.048H72.472V27H70.218V17.2H79.15ZM88.7333 23.262C88.7333 23.29 88.7193 23.486 88.6913 23.85H82.9933C83.096 24.3167 83.3387 24.6853 83.7213 24.956C84.104 25.2267 84.58 25.362 85.1493 25.362C85.5413 25.362 85.8867 25.306 86.1853 25.194C86.4933 25.0727 86.778 24.886 87.0393 24.634L88.2013 25.894C87.492 26.706 86.456 27.112 85.0933 27.112C84.244 27.112 83.4927 26.9487 82.8393 26.622C82.186 26.286 81.682 25.824 81.3273 25.236C80.9727 24.648 80.7953 23.9807 80.7953 23.234C80.7953 22.4967 80.968 21.834 81.3133 21.246C81.668 20.6487 82.1487 20.1867 82.7553 19.86C83.3713 19.524 84.0573 19.356 84.8133 19.356C85.5507 19.356 86.218 19.5147 86.8153 19.832C87.4127 20.1493 87.8793 20.6067 88.2153 21.204C88.5607 21.792 88.7333 22.478 88.7333 23.262ZM84.8273 21.008C84.3327 21.008 83.9173 21.148 83.5813 21.428C83.2453 21.708 83.04 22.0907 82.9653 22.576H86.6753C86.6007 22.1 86.3953 21.722 86.0593 21.442C85.7233 21.1527 85.3127 21.008 84.8273 21.008ZM94.8454 19.356C95.5454 19.356 96.1801 19.5193 96.7494 19.846C97.3281 20.1633 97.7808 20.616 98.1074 21.204C98.4341 21.7827 98.5974 22.4593 98.5974 23.234C98.5974 24.0087 98.4341 24.69 98.1074 25.278C97.7808 25.8567 97.3281 26.3093 96.7494 26.636C96.1801 26.9533 95.5454 27.112 94.8454 27.112C93.8841 27.112 93.1281 26.8087 92.5774 26.202V29.716H90.3934V19.468H92.4794V20.336C93.0208 19.6827 93.8094 19.356 94.8454 19.356ZM94.4674 25.32C95.0274 25.32 95.4848 25.1333 95.8394 24.76C96.2034 24.3773 96.3854 23.8687 96.3854 23.234C96.3854 22.5993 96.2034 22.0953 95.8394 21.722C95.4848 21.3393 95.0274 21.148 94.4674 21.148C93.9074 21.148 93.4454 21.3393 93.0814 21.722C92.7268 22.0953 92.5494 22.5993 92.5494 23.234C92.5494 23.8687 92.7268 24.3773 93.0814 24.76C93.4454 25.1333 93.9074 25.32 94.4674 25.32ZM107.45 23.262C107.45 23.29 107.436 23.486 107.408 23.85H101.71C101.813 24.3167 102.055 24.6853 102.438 24.956C102.821 25.2267 103.297 25.362 103.866 25.362C104.258 25.362 104.603 25.306 104.902 25.194C105.21 25.0727 105.495 24.886 105.756 24.634L106.918 25.894C106.209 26.706 105.173 27.112 103.81 27.112C102.961 27.112 102.209 26.9487 101.556 26.622C100.903 26.286 100.399 25.824 100.044 25.236C99.6895 24.648 99.5121 23.9807 99.5121 23.234C99.5121 22.4967 99.6848 21.834 100.03 21.246C100.385 20.6487 100.865 20.1867 101.472 19.86C102.088 19.524 102.774 19.356 103.53 19.356C104.267 19.356 104.935 19.5147 105.532 19.832C106.129 20.1493 106.596 20.6067 106.932 21.204C107.277 21.792 107.45 22.478 107.45 23.262ZM103.544 21.008C103.049 21.008 102.634 21.148 102.298 21.428C101.962 21.708 101.757 22.0907 101.682 22.576H105.392C105.317 22.1 105.112 21.722 104.776 21.442C104.44 21.1527 104.029 21.008 103.544 21.008ZM109.124 19.468H111.294V23.948L114.962 19.468H116.964V27H114.794V22.52L111.14 27H109.124V19.468ZM112.904 18.656C111.262 18.656 110.436 17.9327 110.426 16.486H111.854C111.864 16.8127 111.952 17.0693 112.12 17.256C112.298 17.4333 112.554 17.522 112.89 17.522C113.226 17.522 113.483 17.4333 113.66 17.256C113.847 17.0693 113.94 16.8127 113.94 16.486H115.396C115.387 17.9327 114.556 18.656 112.904 18.656ZM125.392 21.26H122.844V27H120.674V21.26H118.126V19.468H125.392V21.26ZM126.556 19.468H128.726V23.948L132.394 19.468H134.396V27H132.226V22.52L128.572 27H126.556V19.468ZM146.214 23.066C147.101 23.3647 147.544 23.962 147.544 24.858C147.544 25.5393 147.287 26.0667 146.774 26.44C146.261 26.8133 145.495 27 144.478 27H140.46V19.468H144.31C145.253 19.468 145.99 19.6407 146.522 19.986C147.054 20.322 147.32 20.798 147.32 21.414C147.32 21.7873 147.222 22.1187 147.026 22.408C146.839 22.688 146.569 22.9073 146.214 23.066ZM142.462 22.562H144.114C144.879 22.562 145.262 22.2913 145.262 21.75C145.262 21.218 144.879 20.952 144.114 20.952H142.462V22.562ZM144.296 25.516C145.099 25.516 145.5 25.2407 145.5 24.69C145.5 24.4007 145.407 24.1907 145.22 24.06C145.033 23.92 144.739 23.85 144.338 23.85H142.462V25.516H144.296ZM156.452 24.144H155.318V27H153.134V19.468H155.318V22.394H156.494L158.538 19.468H160.862L158.23 23.08L161.044 27H158.468L156.452 24.144ZM164.906 19.356C166.072 19.356 166.968 19.636 167.594 20.196C168.219 20.7467 168.532 21.582 168.532 22.702V27H166.488V26.062C166.077 26.762 165.312 27.112 164.192 27.112C163.613 27.112 163.109 27.014 162.68 26.818C162.26 26.622 161.938 26.3513 161.714 26.006C161.49 25.6607 161.378 25.2687 161.378 24.83C161.378 24.13 161.639 23.5793 162.162 23.178C162.694 22.7767 163.51 22.576 164.612 22.576H166.348C166.348 22.1 166.203 21.736 165.914 21.484C165.624 21.2227 165.19 21.092 164.612 21.092C164.21 21.092 163.814 21.1573 163.422 21.288C163.039 21.4093 162.712 21.5773 162.442 21.792L161.658 20.266C162.068 19.9767 162.558 19.7527 163.128 19.594C163.706 19.4353 164.299 19.356 164.906 19.356ZM164.738 25.642C165.111 25.642 165.442 25.558 165.732 25.39C166.021 25.2127 166.226 24.956 166.348 24.62V23.85H164.85C163.954 23.85 163.506 24.144 163.506 24.732C163.506 25.012 163.613 25.236 163.828 25.404C164.052 25.5627 164.355 25.642 164.738 25.642ZM176.757 21.26H174.209V27H172.039V21.26H169.491V19.468H176.757V21.26ZM180.847 19.356C182.014 19.356 182.91 19.636 183.535 20.196C184.16 20.7467 184.473 21.582 184.473 22.702V27H182.429V26.062C182.018 26.762 181.253 27.112 180.133 27.112C179.554 27.112 179.05 27.014 178.621 26.818C178.201 26.622 177.879 26.3513 177.655 26.006C177.431 25.6607 177.319 25.2687 177.319 24.83C177.319 24.13 177.58 23.5793 178.103 23.178C178.635 22.7767 179.452 22.576 180.553 22.576H182.289C182.289 22.1 182.144 21.736 181.855 21.484C181.566 21.2227 181.132 21.092 180.553 21.092C180.152 21.092 179.755 21.1573 179.363 21.288C178.98 21.4093 178.654 21.5773 178.383 21.792L177.599 20.266C178.01 19.9767 178.5 19.7527 179.069 19.594C179.648 19.4353 180.24 19.356 180.847 19.356ZM180.679 25.642C181.052 25.642 181.384 25.558 181.673 25.39C181.962 25.2127 182.168 24.956 182.289 24.62V23.85H180.791C179.895 23.85 179.447 24.144 179.447 24.732C179.447 25.012 179.554 25.236 179.769 25.404C179.993 25.5627 180.296 25.642 180.679 25.642ZM193.594 19.468V27H191.41V21.26H189.03L188.96 22.59C188.923 23.5793 188.83 24.4007 188.68 25.054C188.531 25.7073 188.288 26.2207 187.952 26.594C187.616 26.9673 187.15 27.154 186.552 27.154C186.235 27.154 185.857 27.098 185.418 26.986L185.53 25.194C185.68 25.2127 185.787 25.222 185.852 25.222C186.179 25.222 186.422 25.1053 186.58 24.872C186.748 24.6293 186.86 24.326 186.916 23.962C186.972 23.5887 187.014 23.0987 187.042 22.492L187.154 19.468H193.594ZM199.223 27.112C198.429 27.112 197.715 26.9487 197.081 26.622C196.455 26.286 195.965 25.824 195.611 25.236C195.256 24.648 195.079 23.9807 195.079 23.234C195.079 22.4873 195.256 21.82 195.611 21.232C195.965 20.644 196.455 20.1867 197.081 19.86C197.715 19.524 198.429 19.356 199.223 19.356C200.016 19.356 200.725 19.524 201.351 19.86C201.976 20.1867 202.466 20.644 202.821 21.232C203.175 21.82 203.353 22.4873 203.353 23.234C203.353 23.9807 203.175 24.648 202.821 25.236C202.466 25.824 201.976 26.286 201.351 26.622C200.725 26.9487 200.016 27.112 199.223 27.112ZM199.223 25.32C199.783 25.32 200.24 25.1333 200.595 24.76C200.959 24.3773 201.141 23.8687 201.141 23.234C201.141 22.5993 200.959 22.0953 200.595 21.722C200.24 21.3393 199.783 21.148 199.223 21.148C198.663 21.148 198.201 21.3393 197.837 21.722C197.473 22.0953 197.291 22.5993 197.291 23.234C197.291 23.8687 197.473 24.3773 197.837 24.76C198.201 25.1333 198.663 25.32 199.223 25.32ZM210.889 21.26H207.025V27H204.855V19.468H210.889V21.26Z" fill="white"/>
</svg>
