<svg width="197" height="44" viewBox="0 0 197 44" fill="none" xmlns="http://www.w3.org/2000/svg">
<rect width="197" height="44" rx="2" fill="#FFC94F"/>
<path d="M65.15 17.2V27H62.896V19.048H58.472V27H56.218V17.2H65.15ZM70.9393 27.112C70.146 27.112 69.432 26.9487 68.7973 26.622C68.172 26.286 67.682 25.824 67.3273 25.236C66.9727 24.648 66.7953 23.9807 66.7953 23.234C66.7953 22.4873 66.9727 21.82 67.3273 21.232C67.682 20.644 68.172 20.1867 68.7973 19.86C69.432 19.524 70.146 19.356 70.9393 19.356C71.7327 19.356 72.442 19.524 73.0673 19.86C73.6927 20.1867 74.1827 20.644 74.5373 21.232C74.892 21.82 75.0693 22.4873 75.0693 23.234C75.0693 23.9807 74.892 24.648 74.5373 25.236C74.1827 25.824 73.6927 26.286 73.0673 26.622C72.442 26.9487 71.7327 27.112 70.9393 27.112ZM70.9393 25.32C71.4993 25.32 71.9567 25.1333 72.3113 24.76C72.6753 24.3773 72.8573 23.8687 72.8573 23.234C72.8573 22.5993 72.6753 22.0953 72.3113 21.722C71.9567 21.3393 71.4993 21.148 70.9393 21.148C70.3793 21.148 69.9173 21.3393 69.5533 21.722C69.1893 22.0953 69.0073 22.5993 69.0073 23.234C69.0073 23.8687 69.1893 24.3773 69.5533 24.76C69.9173 25.1333 70.3793 25.32 70.9393 25.32ZM84.9041 25.208V28.624H82.8741V27H77.5821V28.624H75.5521V25.208H75.8601C76.3268 25.1987 76.6488 24.9233 76.8261 24.382C77.0034 23.8407 77.1154 23.0707 77.1621 22.072L77.2601 19.468H83.8261V25.208H84.9041ZM79.1361 22.226C79.1081 22.9913 79.0474 23.6167 78.9541 24.102C78.8701 24.5873 78.7068 24.956 78.4641 25.208H81.6421V21.26H79.1781L79.1361 22.226ZM90.7165 19.356C91.4165 19.356 92.0512 19.5193 92.6205 19.846C93.1992 20.1633 93.6518 20.616 93.9785 21.204C94.3052 21.7827 94.4685 22.4593 94.4685 23.234C94.4685 24.0087 94.3052 24.69 93.9785 25.278C93.6518 25.8567 93.1992 26.3093 92.6205 26.636C92.0512 26.9533 91.4165 27.112 90.7165 27.112C89.7552 27.112 88.9992 26.8087 88.4485 26.202V29.716H86.2645V19.468H88.3505V20.336C88.8918 19.6827 89.6805 19.356 90.7165 19.356ZM90.3385 25.32C90.8985 25.32 91.3558 25.1333 91.7105 24.76C92.0745 24.3773 92.2565 23.8687 92.2565 23.234C92.2565 22.5993 92.0745 22.0953 91.7105 21.722C91.3558 21.3393 90.8985 21.148 90.3385 21.148C89.7785 21.148 89.3165 21.3393 88.9525 21.722C88.5978 22.0953 88.4205 22.5993 88.4205 23.234C88.4205 23.8687 88.5978 24.3773 88.9525 24.76C89.3165 25.1333 89.7785 25.32 90.3385 25.32ZM99.5272 27.112C98.7339 27.112 98.0199 26.9487 97.3852 26.622C96.7599 26.286 96.2699 25.824 95.9152 25.236C95.5606 24.648 95.3832 23.9807 95.3832 23.234C95.3832 22.4873 95.5606 21.82 95.9152 21.232C96.2699 20.644 96.7599 20.1867 97.3852 19.86C98.0199 19.524 98.7339 19.356 99.5272 19.356C100.321 19.356 101.03 19.524 101.655 19.86C102.281 20.1867 102.771 20.644 103.125 21.232C103.48 21.82 103.657 22.4873 103.657 23.234C103.657 23.9807 103.48 24.648 103.125 25.236C102.771 25.824 102.281 26.286 101.655 26.622C101.03 26.9487 100.321 27.112 99.5272 27.112ZM99.5272 25.32C100.087 25.32 100.545 25.1333 100.899 24.76C101.263 24.3773 101.445 23.8687 101.445 23.234C101.445 22.5993 101.263 22.0953 100.899 21.722C100.545 21.3393 100.087 21.148 99.5272 21.148C98.9672 21.148 98.5052 21.3393 98.1412 21.722C97.7772 22.0953 97.5952 22.5993 97.5952 23.234C97.5952 23.8687 97.7772 24.3773 98.1412 24.76C98.5052 25.1333 98.9672 25.32 99.5272 25.32ZM109.513 19.986C110.232 19.986 110.862 20.1353 111.403 20.434C111.945 20.7233 112.36 21.134 112.649 21.666C112.948 22.198 113.097 22.814 113.097 23.514C113.097 24.2327 112.92 24.872 112.565 25.432C112.22 25.9827 111.735 26.412 111.109 26.72C110.484 27.0187 109.775 27.168 108.981 27.168C107.665 27.168 106.629 26.748 105.873 25.908C105.127 25.0587 104.753 23.8173 104.753 22.184C104.753 20.672 105.08 19.468 105.733 18.572C106.396 17.6667 107.409 17.074 108.771 16.794L112.355 16.08L112.649 17.956L109.485 18.586C108.627 18.754 107.987 19.034 107.567 19.426C107.157 19.818 106.914 20.3733 106.839 21.092C107.166 20.7373 107.558 20.4667 108.015 20.28C108.473 20.084 108.972 19.986 109.513 19.986ZM108.995 25.474C109.555 25.474 110.003 25.292 110.339 24.928C110.685 24.564 110.857 24.102 110.857 23.542C110.857 22.9727 110.685 22.52 110.339 22.184C110.003 21.848 109.555 21.68 108.995 21.68C108.426 21.68 107.969 21.848 107.623 22.184C107.278 22.52 107.105 22.9727 107.105 23.542C107.105 24.1113 107.283 24.578 107.637 24.942C107.992 25.2967 108.445 25.474 108.995 25.474ZM114.579 19.468H116.749V22.408H120.025V19.468H122.209V27H120.025V24.186H116.749V27H114.579V19.468ZM131.622 23.262C131.622 23.29 131.608 23.486 131.58 23.85H125.882C125.985 24.3167 126.227 24.6853 126.61 24.956C126.993 25.2267 127.469 25.362 128.038 25.362C128.43 25.362 128.775 25.306 129.074 25.194C129.382 25.0727 129.667 24.886 129.928 24.634L131.09 25.894C130.381 26.706 129.345 27.112 127.982 27.112C127.133 27.112 126.381 26.9487 125.728 26.622C125.075 26.286 124.571 25.824 124.216 25.236C123.861 24.648 123.684 23.9807 123.684 23.234C123.684 22.4967 123.857 21.834 124.202 21.246C124.557 20.6487 125.037 20.1867 125.644 19.86C126.26 19.524 126.946 19.356 127.702 19.356C128.439 19.356 129.107 19.5147 129.704 19.832C130.301 20.1493 130.768 20.6067 131.104 21.204C131.449 21.792 131.622 22.478 131.622 23.262ZM127.716 21.008C127.221 21.008 126.806 21.148 126.47 21.428C126.134 21.708 125.929 22.0907 125.854 22.576H129.564C129.489 22.1 129.284 21.722 128.948 21.442C128.612 21.1527 128.201 21.008 127.716 21.008ZM140.618 23.262C140.618 23.29 140.604 23.486 140.576 23.85H134.878C134.981 24.3167 135.223 24.6853 135.606 24.956C135.989 25.2267 136.465 25.362 137.034 25.362C137.426 25.362 137.771 25.306 138.07 25.194C138.378 25.0727 138.663 24.886 138.924 24.634L140.086 25.894C139.377 26.706 138.341 27.112 136.978 27.112C136.129 27.112 135.377 26.9487 134.724 26.622C134.071 26.286 133.567 25.824 133.212 25.236C132.857 24.648 132.68 23.9807 132.68 23.234C132.68 22.4967 132.853 21.834 133.198 21.246C133.553 20.6487 134.033 20.1867 134.64 19.86C135.256 19.524 135.942 19.356 136.698 19.356C137.435 19.356 138.103 19.5147 138.7 19.832C139.297 20.1493 139.764 20.6067 140.1 21.204C140.445 21.792 140.618 22.478 140.618 23.262ZM136.712 21.008C136.217 21.008 135.802 21.148 135.466 21.428C135.13 21.708 134.925 22.0907 134.85 22.576H138.56C138.485 22.1 138.28 21.722 137.944 21.442C137.608 21.1527 137.197 21.008 136.712 21.008Z" fill="#535353"/>
</svg>
